<?xml version="1.0" encoding="UTF-8"?>
<svg width="128px" height="128px" viewBox="0 0 128 128" version="1.1" xmlns="http://www.w3.org/2000/svg" xmlns:xlink="http://www.w3.org/1999/xlink">
    <title>mf表</title>
    <g id="页面-1" stroke="none" stroke-width="1" fill="none" fill-rule="evenodd">
        <g id="mf表" fill="#fff">
            <rect id="矩形" fill-rule="nonzero" opacity="0" x="0" y="0" width="128" height="128"></rect>
            <path d="M5.333,106.329 L5.33333337,106.928 C5.33333337,115.610667 12.3893334,122.666667 21.0666666,122.666667 L21.0666666,122.666667 L33.629,122.666 L42.8682575,128 L21.0666666,128 C9.45066662,128 -1.0658141e-13,118.549333 -1.0658141e-13,106.928 L-1.0658141e-13,106.928 L-2.13162821e-13,103.25 L5.333,106.329 Z M39.9493332,5.33333338 L21.0666666,5.33333338 C12.3893334,5.33333338 5.33333337,12.3893334 5.33333337,21.0666666 L5.33333337,21.0666666 L5.33333337,30.6666667 L39.8693332,30.6666667 L39.8693332,5.73333338 C39.8693332,5.592 39.9279999,5.46933338 39.9493332,5.33333338 L39.9493332,5.33333338 Z M-1.0658141e-13,21.0666666 C-1.0658141e-13,9.45066663 9.45066662,0 21.0666666,0 L21.0666666,0 L106.933333,0 C118.549333,0 128,9.45066663 128,21.0666666 L128,21.0666666 L128,106.928 C128,118.549333 118.549333,128 106.933333,128 L106.933333,128 L42.8682575,128 L52.107,122.666 L106.933333,122.666667 C115.504845,122.666667 122.494328,115.781715 122.663528,107.244923 L122.666667,106.928 L122.666667,97.336 L85.736,97.336 L85.736,92.002 L122.666667,92.0026666 L122.666667,66.6666666 L85.736,66.666 L85.736,61.333 L122.666667,61.3333334 L122.666667,36 L54.992,36 L45.754,30.666 L122.666667,30.6666666 L122.666667,21.0666666 C122.666667,12.3893334 115.610667,5.33333338 106.933333,5.33333338 L106.933333,5.33333338 L45.12,5.33333338 C45.1413334,5.46933338 45.2,5.592 45.2,5.73333338 L45.2,5.73333338 L45.2,30.346 L42.8682575,29 L30.744,36 L5.33333337,36 L5.333,50.671 L-2.13162821e-13,53.75 Z" id="形状结合" fill-rule="nonzero"></path>
            <path d="M60.7488132,70.0840821 L80.5004316,101.064126 L43.949005,122.092784 L60.7488132,70.0840821 Z M24.671134,70.0477632 L41.6167106,122.092784 L5.0652841,101.064126 L24.671134,70.0477632 Z M42.7828578,36.0532488 L59.5462239,68.0502223 L42.7828578,119.84101 L25.9101654,68.0502223 L42.7828578,36.0532488 Z M81.2657157,57.3361392 L81.2657157,98.9576279 L61.7327499,68.3044547 L81.2657157,57.3361392 Z M4.3,57.3361392 L23.6871973,68.3044547 L4.3,98.9576279 L4.3,57.3361392 Z M42.7099736,53.1594628 C42.7099736,53.1594628 43.4388156,56.9003121 42.2726684,59.5152748 C41.1429633,62.0939185 37.7174059,63.5829944 36.1139535,65.1083893 C34.9113642,66.234276 34.0367538,68.4860494 33.6723328,69.6119361 C33.6358907,69.6845739 33.6358907,69.7208928 33.6358907,69.7935307 L33.6358907,69.8661685 L33.6358907,69.8298496 C33.6723328,69.13979 33.9274275,65.9437246 36.296164,64.1277783 C38.3733637,62.5297456 36.8063534,59.2247234 36.5512587,58.6799395 L36.5512587,58.6436205 C36.5512587,58.6073016 36.5148166,58.6073016 36.5148166,58.6073016 C36.5148166,58.6073016 36.8792376,60.3142911 36.3326061,61.5491346 C35.7495325,62.7839781 34.5469432,63.4740376 34.0003117,64.7452 C33.6723328,65.5078975 33.5994486,67.214887 33.5994486,68.4860494 L33.5994486,68.7039629 C33.5994486,69.2487468 33.5994486,69.6845739 33.6358907,69.8661685 C33.6358907,69.8661685 33.6358907,69.9024875 33.6358907,69.9024875 C33.6358907,69.9388064 33.6358907,69.9388064 33.6358907,69.9388064 L33.6358907,69.9024875 L33.6358907,69.9751253 C33.6723328,70.2293578 33.7816591,70.4472714 33.9638696,70.628866 L42.0540158,78.2558403 C42.4184368,78.5463918 42.9650683,78.5463918 43.3294893,78.2558403 L51.6018461,70.5925471 C51.8569408,70.4109524 51.9662671,70.0840821 51.9662671,69.7935307 C51.8933829,68.667644 51.6018461,66.4521895 51.200983,64.9994325 C50.6179094,62.7839781 48.8322465,61.0043507 48.8322465,61.0043507 L48.8322465,61.0769886 C48.8322465,61.4401778 48.7958044,63.1108484 48.2491729,64.2367351 C47.6296572,65.5078975 46.3541836,66.4158706 46.3541836,66.4158706 C46.3541836,66.4158706 48.1034045,61.4038589 46.6457205,58.4983448 C44.9329417,54.8664523 42.7099736,53.1594628 42.7099736,53.1594628 Z M44.2405418,35 L80.3911053,55.8107443 L60.8581395,66.7790599 L44.2405418,35 Z M41.3251738,35 L24.5618077,66.7427409 L5.21105251,55.8107443 L41.3251738,35 Z" id="形状结合_1_"></path>
        </g>
    </g>
</svg>
